<?xml version="1.0" encoding="UTF-8" standalone="no"?>
<svg
   role="img"
   aria-hidden="true"
   aria-label="Google Research logo"
   height="40"
   viewBox="0 0 340 10.583333"
   version="1.1"
   id="svg7"
   width="340"
   sodipodi:docname="cor.svg"
   inkscape:version="1.3.2 (091e20e, 2023-11-25)"
   xmlns:inkscape="http://www.inkscape.org/namespaces/inkscape"
   xmlns:sodipodi="http://sodipodi.sourceforge.net/DTD/sodipodi-0.dtd"
   xmlns="http://www.w3.org/2000/svg"
   xmlns:svg="http://www.w3.org/2000/svg"
   xmlns:rdf="http://www.w3.org/1999/02/22-rdf-syntax-ns#"
   xmlns:cc="http://creativecommons.org/ns#"
   xmlns:dc="http://purl.org/dc/elements/1.1/">
  <sodipodi:namedview
     id="namedview1"
     pagecolor="#ffffff"
     bordercolor="#000000"
     borderopacity="0.25"
     inkscape:showpageshadow="2"
     inkscape:pageopacity="0.0"
     inkscape:pagecheckerboard="0"
     inkscape:deskcolor="#d1d1d1"
     inkscape:zoom="4.0529412"
     inkscape:cx="185.0508"
     inkscape:cy="117.69231"
     inkscape:window-width="2560"
     inkscape:window-height="1387"
     inkscape:window-x="0"
     inkscape:window-y="25"
     inkscape:window-maximized="1"
     inkscape:current-layer="svg7" />
  <defs
     id="defs7">
    <clipPath
       id="presentation_clip_path"
       clipPathUnits="userSpaceOnUse">
      <rect
         x="0"
         y="0"
         width="5080"
         height="2540"
         id="rect1" />
    </clipPath>
    <clipPath
       id="clip_path_1"
       clipPathUnits="userSpaceOnUse">
      <path
         d="m 7667,9572 h 4825 v 1401 H 7667 Z"
         id="path13" />
    </clipPath>
    <clipPath
       id="clip_path_2"
       clipPathUnits="userSpaceOnUse">
      <path
         d="M 147,765 H 4957 V 2150 H 147 Z"
         id="path22" />
    </clipPath>
  </defs>
  <title
     id="title1">Google Research</title>
  <g
     fill="#5f6368"
     id="g1"
     transform="matrix(1.2702684,0,0,1.2702684,2.345476,-7.6739574)">
    <path
       d="m 82,1.79 h 5.61 c 2.74,0 5.15,2.02 5.15,4.9 0,2.35 -1.75,4.25 -3.93,4.71 l -0.05,0.07 4.62,6.69 v 0.09 h -2.5 l -4.44,-6.67 h -2.35 v 6.67 H 82 Z m 5.52,7.82 c 1.63,0 3.08,-1.2 3.08,-2.92 0,-1.31 -1.06,-2.87 -2.94,-2.87 h -3.54 v 5.79 z m 6.45,3.01 c 0,-3.27 2.14,-6 5.56,-6 3.36,0 5.47,2.37 5.47,6 0,0.16 -0.02,0.39 -0.02,0.39 h -8.85 c 0.07,2.53 2.02,3.68 3.63,3.68 1.56,0 2.53,-0.9 3.17,-2.02 l 1.89,0.92 c -0.87,1.66 -2.62,3.04 -5.15,3.04 -3.3,-0.01 -5.7,-2.54 -5.7,-6.01 z m 5.52,-4.07 c -1.63,0 -2.85,1.1 -3.2,2.71 h 6.46 c -0.06,-0.98 -0.77,-2.71 -3.26,-2.71 z m 6.6,6.85 1.89,-0.8 c 0.6,1.45 1.79,2.14 2.94,2.14 1.45,0 2.37,-0.74 2.37,-1.47 0,-0.71 -0.44,-1.29 -2.18,-1.72 l -1.66,-0.41 c -1.31,-0.34 -3.04,-1.17 -3.04,-3.1 0,-2.25 2.12,-3.4 4.46,-3.4 1.82,0 3.7,0.9 4.39,2.62 l -1.89,0.78 c -0.48,-1.06 -1.63,-1.52 -2.67,-1.52 -0.92,0 -2.14,0.51 -2.14,1.43 0,0.71 0.53,1.08 1.82,1.38 l 1.7,0.44 c 2.32,0.55 3.36,1.82 3.36,3.38 0,1.88 -1.82,3.5 -4.53,3.5 -2.57,-0.03 -4.2,-1.61 -4.82,-3.25 z m 10.43,-2.78 c 0,-3.27 2.14,-6 5.56,-6 3.36,0 5.47,2.37 5.47,6 0,0.16 -0.02,0.39 -0.02,0.39 h -8.85 c 0.07,2.53 2.02,3.68 3.63,3.68 1.56,0 2.53,-0.9 3.17,-2.02 l 1.89,0.92 c -0.87,1.66 -2.62,3.04 -5.15,3.04 -3.31,-0.01 -5.7,-2.54 -5.7,-6.01 z m 5.52,-4.07 c -1.63,0 -2.85,1.1 -3.2,2.71 h 6.46 c -0.07,-0.98 -0.78,-2.71 -3.26,-2.71 z m 16.61,2.76 v 6.94 h -2.02 v -1.56 h -0.09 c -0.62,0.94 -1.75,1.93 -3.5,1.93 -2.46,0 -4.37,-1.66 -4.37,-3.86 0,-2.46 2.07,-3.82 4.85,-3.82 1.59,0 2.67,0.44 3.1,0.69 v -0.48 c 0,-1.56 -1.47,-2.64 -2.92,-2.64 -1.2,0 -2.09,0.44 -2.8,1.5 l -1.86,-1.17 c 0.99,-1.4 2.53,-2.21 4.55,-2.21 3.15,-0.01 5.06,1.78 5.06,4.68 z m -2.03,2.12 c 0,0 -1.01,-0.78 -2.76,-0.78 -1.79,0 -3.01,0.99 -3.01,2.16 0,1.22 1.26,1.93 2.34,1.93 1.71,0 3.43,-1.47 3.43,-3.31 z M 141,18.26 V 6.99 h 2.02 v 1.84 h 0.09 c 0.46,-1.29 2.12,-2.16 3.29,-2.16 0.69,0 1.15,0.09 1.56,0.28 L 147.32,9 C 147,8.88 146.61,8.84 146.08,8.84 c -1.59,0 -2.97,1.49 -2.97,3.22 v 6.21 H 141 Z m 7.15,-5.64 c 0,-3.43 2.41,-6 5.79,-6 2.69,0 4.25,1.59 4.94,3.24 l -1.93,0.81 c -0.55,-1.33 -1.59,-2.12 -3.15,-2.12 -1.79,0 -3.54,1.63 -3.54,4.07 0,2.44 1.75,4.07 3.54,4.07 1.56,0 2.71,-0.8 3.26,-2.12 l 1.89,0.81 c -0.69,1.66 -2.32,3.24 -5.01,3.24 -3.38,0 -5.79,-2.6 -5.79,-6 z m 14.57,-5.63 -0.09,1.56 h 0.09 c 0.6,-1.03 2.02,-1.93 3.56,-1.93 3.01,0 4.3,1.91 4.3,4.55 v 7.08 h -2.12 v -6.76 c 0,-2.21 -1.22,-2.94 -2.69,-2.94 -1.84,0 -3.06,1.84 -3.06,3.56 v 6.14 h -2.12 V 1.79 h 2.12 v 5.2 z"
       id="path1" />
  </g>
  <path
     fill="#4285f4"
     d="m 14.400323,15.978439 c -6.5545844,0 -12.054847,-5.309721 -12.054847,-11.826197 0,-6.5164781 5.5002626,-11.8261994 12.054847,-11.8261994 3.620264,0 6.198911,1.4099976 8.14242,3.2645888 l -2.286482,2.273782 c -1.397296,-1.2956747 -3.277294,-2.3118883 -5.855938,-2.3118883 -4.7762098,0 -8.5235004,3.8362085 -8.5235004,8.5997169 0,4.763506 3.7345892,8.599717 8.5235004,8.599717 3.099454,0 4.865127,-1.244863 5.995668,-2.3627 0.927295,-0.927296 1.537024,-2.248375 1.765671,-4.064858 H 14.400323 V 3.0852147 h 10.924308 c 0.114331,0.5716219 0.177828,1.27027 0.177828,2.0197277 0,2.4262126 -0.673241,5.4240456 -2.807291,7.5580966 -2.095943,2.159457 -4.763507,3.3154 -8.294853,3.3154 z"
     id="path2"
     style="stroke-width:1.27027" />
  <path
     fill="#ea4335"
     d="m 42.384336,8.35683 c 0,4.382425 -3.391617,7.608906 -7.532692,7.608906 -4.141075,0 -7.532692,-3.226481 -7.532692,-7.608906 0,-4.4078328 3.391617,-7.6089085 7.532692,-7.6089085 4.141075,0 7.532692,3.2010757 7.532692,7.6089085 z m -3.302699,0 c 0,-2.7437808 -1.968916,-4.6110755 -4.242697,-4.6110755 -2.27378,0 -4.242696,1.8799981 -4.242696,4.6110755 0,2.70567 1.968916,4.611073 4.242696,4.611073 2.273781,0 4.242697,-1.8927 4.242697,-4.611073 z"
     id="path3"
     style="stroke-width:1.27027" />
  <path
     fill="#fbbc04"
     d="m 59.291607,8.35683 c 0,4.382425 -3.378914,7.608906 -7.532692,7.608906 -4.153778,0 -7.532692,-3.226481 -7.532692,-7.608906 0,-4.4078328 3.378914,-7.6089085 7.532692,-7.6089085 4.141075,0 7.532692,3.2010757 7.532692,7.6089085 z m -3.302697,0 c 0,-2.7437808 -1.968916,-4.6110755 -4.242696,-4.6110755 -2.273783,0 -4.242699,1.8799981 -4.242699,4.6110755 0,2.70567 1.968916,4.611073 4.242699,4.611073 2.27378,0.01276 4.242696,-1.8927 4.242696,-4.611073 z"
     id="path4"
     style="stroke-width:1.27027" />
  <path
     fill="#4285f4"
     d="M 75.766987,1.2052186 V 14.873306 c 0,5.627289 -3.328103,7.926474 -7.265935,7.926474 -3.709183,0 -5.944855,-2.477023 -6.783232,-4.496749 l 2.921616,-1.206755 c 0.52081,1.244863 1.791078,2.70567 3.848914,2.70567 2.515131,0 4.090263,-1.562428 4.090263,-4.471343 v -1.09243 h -0.114331 c -0.749459,0.927295 -2.197565,1.727563 -4.026752,1.727563 -3.823507,0 -7.329449,-3.315401 -7.329449,-7.583501 0,-4.2935081 3.505942,-7.6470169 7.329449,-7.6470169 1.829187,0 3.277293,0.8129728 4.026752,1.7021602 h 0.114331 V 1.2052186 Z M 72.807263,8.394938 c 0,-2.6802675 -1.791078,-4.6491835 -4.090265,-4.6491835 -2.311889,0 -4.2554,1.9562146 -4.2554,4.6491835 0,2.654861 1.943511,4.585668 4.2554,4.585668 2.299187,0 4.090265,-1.930807 4.090265,-4.585668 z"
     id="path5"
     style="stroke-width:1.27027" />
  <path
     fill="#34a853"
     d="M 81.648331,-6.8609866 V 15.521142 H 78.282118 V -6.8609866 Z"
     id="path6"
     style="stroke-width:1.27027" />
  <path
     fill="#ea4335"
     d="m 94.859121,10.871961 2.604051,1.727565 c -0.838378,1.244863 -2.870807,3.378913 -6.376749,3.378913 -4.344317,0 -7.48188,-3.340805 -7.48188,-7.608908 0,-4.5221551 3.162967,-7.6089061 7.113503,-7.6089061 3.963237,0 5.906748,3.1375627 6.541883,4.8397229 L 97.615603,6.46413 87.389942,10.681419 c 0.787568,1.524323 1.994323,2.311891 3.709184,2.311891 1.702161,-0.01276 2.896212,-0.851081 3.759995,-2.121349 z M 86.843727,8.12818 93.677771,5.3081851 c -0.381081,-0.9527004 -1.511619,-1.6132402 -2.8454,-1.6132402 -1.702161,0 -4.077562,1.4989154 -3.988644,4.4332351 z"
     id="path7"
     style="stroke-width:1.27027" />
  <g
     class="SlideGroup"
     id="g34"
     transform="matrix(0.01729834,0,0,0.01729834,252.03122,-21.614314)">
    <g
       id="g33">
      <g
         id="container-id1">
        <g
           id="id1"
           class="Slide"
           clip-path="url(#presentation_clip_path)">
          <g
             class="Page"
             id="g32">
            <g
               class="Graphic"
               id="g22">
              <title
                 id="title12">epfl-logo-new
       </title>
              <g
                 id="id3">
                <rect
                   class="BoundingBox"
                   stroke="none"
                   fill="none"
                   x="7667"
                   y="9572"
                   width="4826"
                   height="1402"
                   id="rect12" />
                <defs
                   id="defs13" />
                <g
                   clip-path="url(#clip_path_1)"
                   id="g21">
                  <path
                     fill="#ff0000"
                     stroke="none"
                     d="m 7667,10143 h 302 v -312 h 712 V 9572 H 7667 Z"
                     id="path14" />
                  <path
                     fill="#ff0000"
                     stroke="none"
                     d="m 7667,10973 h 1014 v -259 h -712 v -312 h -302 z"
                     id="path15" />
                  <path
                     fill="#ff0000"
                     stroke="none"
                     d="m 7969,10143 h 651 v 259 h -651 z"
                     id="path16" />
                  <path
                     fill="#ff0000"
                     stroke="none"
                     d="m 9860,9639 c -22,-12 -45,-23 -68,-32 v 0 c -67,-23 -138,-35 -209,-35 -5,0 -11,0 -16,0 h -627 v 1401 h 303 v -571 h 324 c 5,0 10,0 15,0 71,0 142,-12 209,-35 24,-9 47,-20 69,-33 30,-17 57,-37 82,-61 22,-22 42,-47 58,-75 10,-18 19,-37 26,-57 18,-49 27,-101 27,-153 0,-53 -9,-105 -27,-154 -7,-20 -16,-40 -27,-59 -16,-27 -35,-52 -57,-74 -25,-24 -52,-45 -82,-62 z m -130,428 c -12,16 -27,30 -45,40 -5,3 -10,6 -14,8 -28,11 -57,19 -87,22 -33,4 -66,6 -99,6 -1,0 -2,0 -3,0 h -239 v -312 h 239 c 1,0 2,0 3,0 33,0 66,2 99,6 30,3 59,11 87,23 5,2 10,4 15,7 17,10 32,24 44,40 2,3 4,5 5,8 12,20 18,43 18,66 0,2 0,4 0,5 0,2 0,5 0,7 0,23 -6,46 -17,66 -2,3 -4,5 -6,8 z"
                     id="path17" />
                  <path
                     fill="#ff0000"
                     stroke="none"
                     d="M 11780,10714 V 9572 h -303 v 1401 h 1014 v -259 z"
                     id="path18" />
                  <path
                     fill="#ff0000"
                     stroke="none"
                     d="m 10244,10143 h 302 v -312 h 712 v -259 h -1014 z"
                     id="path19" />
                  <path
                     fill="#ff0000"
                     stroke="none"
                     d="m 10244,10402 h 302 v 571 h -302 z"
                     id="path20" />
                  <path
                     fill="#ff0000"
                     stroke="none"
                     d="m 10546,10143 h 651 v 259 h -651 z"
                     id="path21" />
                </g>
              </g>
            </g>
            <g
               class="Graphic"
               id="g31">
              <title
                 id="title22">epfl-logo-new
       </title>
              <g
                 id="id4">
                <rect
                   class="BoundingBox"
                   stroke="none"
                   fill="none"
                   x="147"
                   y="765"
                   width="4811"
                   height="1386"
                   id="rect22" />
                <defs
                   id="defs22" />
                <g
                   clip-path="url(#clip_path_2)"
                   id="g30">
                  <path
                     fill="#ff0000"
                     stroke="none"
                     d="m 147,1329 h 301 v -308 h 710 V 765 H 147 Z"
                     id="path23" />
                  <path
                     fill="#ff0000"
                     stroke="none"
                     d="M 147,2150 H 1158 V 1894 H 448 V 1586 H 147 Z"
                     id="path24" />
                  <path
                     fill="#ff0000"
                     stroke="none"
                     d="m 448,1329 h 649 v 257 H 448 Z"
                     id="path25" />
                  <path
                     fill="#ff0000"
                     stroke="none"
                     d="m 2333,831 c -22,-12 -44,-23 -68,-31 v 0 c -67,-23 -137,-35 -208,-35 -5,0 -11,0 -16,0 h -625 v 1385 h 302 v -564 h 323 c 5,0 10,0 15,0 71,0 141,-12 208,-35 24,-9 47,-20 70,-32 29,-17 56,-37 81,-61 22,-22 42,-47 57,-74 11,-18 20,-37 27,-56 17,-49 26,-100 26,-152 0,-52 -9,-103 -26,-152 -7,-20 -16,-40 -27,-58 -16,-27 -35,-52 -57,-74 -25,-23 -52,-44 -82,-61 z m -129,423 c -12,17 -28,30 -45,40 -5,3 -10,5 -15,7 -27,12 -56,20 -86,23 -33,4 -66,5 -99,5 -1,0 -2,0 -3,0 h -238 v -308 h 239 c 1,0 2,0 3,0 33,0 66,2 98,6 30,3 59,10 87,22 5,2 10,5 14,8 18,10 33,23 45,39 2,3 3,5 5,8 12,20 18,43 18,65 0,2 0,4 0,5 0,3 0,5 0,7 0,23 -6,45 -18,65 -2,3 -3,6 -5,8 z"
                     id="path26" />
                  <path
                     fill="#ff0000"
                     stroke="none"
                     d="M 4247,1894 V 765 h -302 v 1385 h 1011 v -256 z"
                     id="path27" />
                  <path
                     fill="#ff0000"
                     stroke="none"
                     d="m 2716,1329 h 301 v -308 h 710 V 765 H 2716 Z"
                     id="path28" />
                  <path
                     fill="#ff0000"
                     stroke="none"
                     d="m 2716,1586 h 301 v 564 h -301 z"
                     id="path29" />
                  <path
                     fill="#ff0000"
                     stroke="none"
                     d="m 3017,1329 h 649 v 257 h -649 z"
                     id="path30" />
                </g>
              </g>
            </g>
          </g>
        </g>
      </g>
    </g>
  </g>
  <metadata
     id="metadata9">
    <rdf:RDF>
      <cc:Work
         rdf:about="">
        <dc:title>Google Research</dc:title>
      </cc:Work>
    </rdf:RDF>
  </metadata>
</svg>
